:FULLY-SPECIFIED
:FORCE-ALL-JOINTS-BE-3DOF
:DEGREES
306
root 8.88388 15.5822 -23.8606 12.8238 56.6159 14.6555
lfemur -17.8171 18.5039 -18.8758
ltibia 49.989 -0 0
lfoot -20.0056 -21.6607 -0.0406127
ltoes 54.1506 -0 0
rfemur -58.2831 -19.3276 33.4518
rtibia 61.4586 -0 0
rfoot 9.73371 17.0363 0.0191584
rtoes -16.7605 0 0
lowerback 9.51086 -3.09987 -7.26283
upperback 4.67603 -4.60674 -3.85831
thorax -0.195375 -2.30773 0.470806
lowerneck -5.39474 -10.4925 -2.14623
upperneck -3.27499 -13.8294 10.2012
head 0.821346 -6.83732 3.20779
lclavicle -4.01545e-014 1.59028e-015 0
lhumerus -44.4939 -44.6309 102.436
lradius 58.7048 -0 0
lwrist 19.26 0 0
lhand 15.4657 11.61 0.0271752
lfingers 7.12502 -0 0
lthumb 40.2879 36.732 0.0198428
rclavicle -4.01545e-014 1.59028e-015 0
rhumerus -25.2877 53.2921 -64.3621
rradius 73.6559 -0 0
rwrist -0.950939 0 0
rhand 7.93426 -2.07044 -0.490002
rfingers 7.12502 -0 0
rthumb 33.0675 -28.0722 -0.234233
307
root 8.88467 15.5711 -23.8239 12.5398 55.8414 14.3549
lfemur -17.6793 18.9751 -18.6876
ltibia 50.0947 -0 0
lfoot -20.2282 -21.4999 -0.0337384
ltoes 54.5274 -0 0
rfemur -58.6481 -19.9645 34.202
rtibia 61.2409 -0 0
rfoot 9.76273 17.6166 0.0159132
rtoes -17.6658 0 0
lowerback 9.59489 -3.0048 -7.39035
upperback 4.72836 -4.49475 -3.89731
thorax -0.182684 -2.25339 0.49568
lowerneck -5.4454 -10.4377 -2.02416
upperneck -3.44174 -13.749 10.3407
head 0.77346 -6.79992 3.23945
lclavicle -4.01545e-014 1.59028e-015 0
lhumerus -44.4826 -44.8509 102.278
lradius 58.6598 -0 0
lwrist 19.2181 0 0
lhand 15.3345 11.4276 0.0225757
lfingers 7.12502 -0 0
lthumb 40.1648 36.59 0.0164845
rclavicle -4.01545e-014 1.59028e-015 0
rhumerus -22.417 54.5745 -61.4809
rradius 74.294 -0 0
rwrist -1.75113 0 0
rhand 9.35132 -2.36904 -0.406596
rfingers 7.12502 -0 0
rthumb 34.4273 -28.2213 -0.194389
308
root 8.88545 15.5601 -23.7872 12.2684 55.066 14.0668
lfemur -17.5393 19.4458 -18.4976
ltibia 50.2004 -0 0
lfoot -20.4507 -21.3392 -0.0262397
ltoes 54.9041 -0 0
rfemur -59.0235 -20.5968 34.9596
rtibia 61.0231 -0 0
rfoot 9.7917 18.1968 0.0123744
rtoes -18.5712 0 0
lowerback 9.6787 -2.90955 -7.51772
upperback 4.7806 -4.38274 -3.9362
thorax -0.169969 -2.19905 0.520564
lowerneck -5.49593 -10.3828 -1.90217
upperneck -3.60823 -13.6682 10.4799
head 0.725599 -6.7625 3.27107
lclavicle -4.01545e-014 1.59028e-015 0
lhumerus -44.4704 -45.0709 102.12
lradius 58.6149 -0 0
lwrist 19.1761 0 0
lhand 15.2033 11.2451 0.0175583
lfingers 7.12502 -0 0
lthumb 40.0418 36.4479 0.012821
rclavicle -4.01545e-014 1.59028e-015 0
rhumerus -19.3451 55.7673 -58.3984
rradius 74.9321 -0 0
rwrist -2.55131 0 0
rhand 10.7679 -2.66549 -0.315833
rfingers 7.12502 -0 0
rthumb 35.787 -28.3694 -0.151017
309
root 8.88624 15.549 -23.7506 12.0089 54.2899 13.7904
lfemur -17.3973 19.9161 -18.3059
ltibia 50.3062 -0 0
lfoot -20.6732 -21.1785 -0.018117
ltoes 55.2808 -0 0
rfemur -59.4094 -21.2243 35.7249
rtibia 60.8054 -0 0
rfoot 9.82064 18.777 0.00854233
rtoes -19.4766 0 0
lowerback 9.7623 -2.81412 -7.64494
upperback 4.83277 -4.27068 -3.97497
thorax -0.157231 -2.14472 0.54546
lowerneck -5.54633 -10.3278 -1.78024
upperneck -3.77446 -13.587 10.6189
head 0.677762 -6.72505 3.30265
lclavicle -4.01545e-014 1.59028e-015 0
lhumerus -44.4572 -45.2909 101.96
lradius 58.5699 -0 0
lwrist 19.1342 0 0
lhand 15.0721 11.0627 0.0121232
lfingers 7.12502 -0 0
lthumb 39.9187 36.3059 0.00885237
rclavicle -4.01545e-014 1.59028e-015 0
rhumerus -16.0672 56.8608 -55.11
rradius 75.5702 -0 0
rwrist -3.3515 0 0
rhand 12.184 -2.9596 -0.21777
rfingers 7.12502 -0 0
rthumb 37.1466 -28.5165 -0.104144
310
root 8.88702 15.538 -23.7139 11.7604 53.5131 13.5251
lfemur -17.2532 20.386 -18.1123
ltibia 50.4119 -0 0
lfoot -20.8957 -21.0178 -0.00937037
ltoes 55.6576 -0 0
rfemur -59.8059 -21.847 36.498
rtibia 60.5877 -0 0
rfoot 9.84954 19.3572 0.00441738
rtoes -20.382 0 0
lowerback 9.84567 -2.7185 -7.77201
upperback 4.88484 -4.15859 -4.01365
thorax -0.14447 -2.0904 0.570367
lowerneck -5.5966 -10.2726 -1.65839
upperneck -3.94044 -13.5054 10.7575
head 0.62995 -6.68757 3.3342
lclavicle -4.01545e-014 1.59028e-015 0
lhumerus -44.4432 -45.5108 101.8
lradius 58.525 -0 0
lwrist 19.0922 0 0
lhand 14.9409 10.8802 0.00627039
lfingers 7.12502 -0 0
lthumb 39.7956 36.1638 0.0045787
rclavicle -4.01545e-014 1.59028e-015 0
rhumerus -12.5831 57.8448 -51.6154
rradius 76.2082 -0 0
rwrist -4.15168 0 0
rhand 13.5996 -3.2512 -0.11247
rfingers 7.12502 -0 0
rthumb 38.5061 -28.6624 -0.0537953
311
root 8.88781 15.5269 -23.6772 11.5223 52.7357 13.2701
lfemur -17.107 20.8554 -17.9169
ltibia 50.5176 0 0
lfoot -21.1181 -20.8572 0
ltoes 56.0343 0 0
rfemur -60.2133 -22.4646 37.2791
rtibia 60.37 0 0
rfoot 9.8784 19.9374 0
rtoes -21.2874 0 0
lowerback 9.92883 -2.62269 -7.89893
upperback 4.93684 -4.04647 -4.05221
thorax -0.131686 -2.03608 0.595285
lowerneck -5.64675 -10.2174 -1.53661
upperneck -4.10615 -13.4234 10.8959
head 0.582162 -6.65007 3.36572
lclavicle -4.01545e-014 1.59028e-015 0
lhumerus -44.4282 -45.7307 101.639
lradius 58.48 0 0
lwrist 19.0503 0 0
lhand 14.8098 10.6978 0
lfingers 7.12502 0 0
lthumb 39.6726 36.0218 0
rclavicle -4.01545e-014 1.59028e-015 0
rhumerus -8.8981 58.7091 -47.9201
rradius 76.8463 0 0
rwrist -4.95187 0 0
rhand 15.0146 -3.5401 0
rfingers 7.12502 0 0
rthumb 39.8654 -748.807 0
312
root 8.86183 15.5463 -23.5609 11.3431 51.7019 12.8196
lfemur -16.7631 20.6278 -17.5882
ltibia 50.1766 -0 0
lfoot -20.1367 -19.2658 0.447396
ltoes 53.2925 -0 0
rfemur -59.7858 -22.3323 36.4922
rtibia 60.198 -0 0
rfoot 9.60067 18.7573 0.0888214
rtoes -20.8533 0 0
lowerback 9.55262 -2.61349 -7.67595
upperback 4.82414 -3.99061 -3.91354
thorax -0.0453911 -2.00625 0.598098
lowerneck -5.66056 -10.15 -1.50733
upperneck -4.01594 -13.3437 10.751
head 0.595954 -6.6081 3.31547
lclavicle -4.48259e-014 7.95139e-015 0
lhumerus -44.6057 -45.3009 101.928
lradius 58.4247 -0 0
lwrist 19.1361 0 0
lhand 14.4894 10.7374 -0.00332814
lfingers 7.12502 -0 0
lthumb 39.3689 36.1328 -0.00884529
rclavicle -4.48259e-014 7.95139e-015 0
rhumerus -10.2961 57.5334 -49.6886
rradius 77.1092 -0 0
rwrist -4.73301 0 0
rhand 14.4303 -3.87194 0.05129
rfingers 7.12502 -0 0
rthumb 39.3102 -29.2491 0.0650129
313
root 8.83586 15.5657 -23.4447 11.1806 50.6672 12.3841
lfemur -16.4211 20.3983 -17.2615
ltibia 49.8357 -0 0
lfoot -19.1431 -17.6669 0.867297
ltoes 50.5508 -0 0
rfemur -59.3608 -22.1946 35.7071
rtibia 60.0259 -0 0
rfoot 9.32117 17.5768 0.171903
rtoes -20.4192 0 0
lowerback 9.17646 -2.60282 -7.45303
upperback 4.71158 -3.93449 -3.77499
thorax 0.0409037 -1.97642 0.600956
lowerneck -5.67433 -10.0826 -1.47808
upperneck -3.92596 -13.2638 10.6062
head 0.609708 -6.56612 3.26523
lclavicle -4.48259e-014 7.95139e-015 0
lhumerus -44.7787 -44.8705 102.212
lradius 58.3694 -0 0
lwrist 19.222 0 0
lhand 14.1691 10.777 -0.00643487
lfingers 7.12502 -0 0
lthumb 39.0651 36.2438 -0.0171022
rclavicle -4.48259e-014 7.95139e-015 0
rhumerus -11.5842 56.3362 -51.3494
rradius 77.3721 -0 0
rwrist -4.51414 0 0
rhand 13.8458 -4.20428 0.0991927
rfingers 7.12502 -0 0
rthumb 38.7545 -29.6917 0.125737
314
root 8.80988 15.5851 -23.3284 11.0338 49.6319 11.9626
lfemur -16.0811 20.1671 -16.9367
ltibia 49.4947 -0 0
lfoot -18.138 -16.0607 1.25925
ltoes 47.809 -0 0
rfemur -58.9382 -22.0516 34.9239
rtibia 59.8539 -0 0
rfoot 9.04002 16.396 0.249208
rtoes -19.9851 0 0
lowerback 8.80034 -2.59069 -7.2302
upperback 4.59917 -3.87809 -3.63655
thorax 0.127198 -1.94659 0.603859
lowerneck -5.68807 -10.0152 -1.44885
upperneck -3.83622 -13.1836 10.4617
head 0.623423 -6.52412 3.215
lclavicle -4.48259e-014 7.95139e-015 0
lhumerus -44.9475 -44.4394 102.493
lradius 58.3141 -0 0
lwrist 19.3078 0 0
lhand 13.8487 10.8166 -0.00932011
lfingers 7.12502 -0 0
lthumb 38.7613 36.3548 -0.0247704
rclavicle -4.48259e-014 7.95139e-015 0
rhumerus -12.7719 55.1196 -52.9122
rradius 77.635 -0 0
rwrist -4.29528 0 0
rhand 13.261 -4.53709 0.143702
rfingers 7.12502 -0 0
rthumb 38.1983 -30.135 0.182163
315
root 8.78391 15.6046 -23.2122 10.9016 48.5958 11.5537
lfemur -15.7429 19.934 -16.6139
ltibia 49.1538 -0 0
lfoot -17.1222 -14.4476 1.62282
ltoes 45.0672 -0 0
rfemur -58.5182 -21.9032 34.1426
rtibia 59.6819 -0 0
rfoot 8.75733 15.2147 0.320701
rtoes -19.551 0 0
lowerback 8.42428 -2.5771 -7.00744
upperback 4.48691 -3.82142 -3.49824
thorax 0.213493 -1.91677 0.606806
lowerneck -5.70176 -9.94776 -1.41964
upperneck -3.74672 -13.1032 10.3173
head 0.637101 -6.48211 3.16479
lclavicle -4.48259e-014 7.95139e-015 0
lhumerus -45.1121 -44.0078 102.769
lradius 58.2588 -0 0
lwrist 19.3937 0 0
lhand 13.5283 10.8563 -0.0119838
lfingers 7.12502 -0 0
lthumb 38.4575 36.4659 -0.0318496
rclavicle -4.48259e-014 7.95139e-015 0
rhumerus -13.8679 53.8858 -54.3858
rradius 77.8978 -0 0
rwrist -4.07642 0 0
rhand 12.6759 -4.87034 0.184811
rfingers 7.12502 -0 0
rthumb 37.6417 -30.5787 0.234283
316
root 8.75793 15.624 -23.0959 10.7829 47.5592 11.1566
lfemur -15.4066 19.6992 -16.293
ltibia 48.8128 -0 0
lfoot -16.0964 -12.828 1.9576
ltoes 42.3254 -0 0
rfemur -58.1009 -21.7495 33.3634
rtibia 59.5099 -0 0
rfoot 8.47322 14.0331 0.386351
rtoes -19.1169 0 0
lowerback 8.04828 -2.56206 -6.78479
upperback 4.37478 -3.76448 -3.36005
thorax 0.299788 -1.88696 0.609799
lowerneck -5.71542 -9.88034 -1.39046
upperneck -3.65746 -13.0226 10.173
head 0.65074 -6.4401 3.1146
lclavicle -4.48259e-014 7.95139e-015 0
lhumerus -45.2727 -43.5756 103.043
lradius 58.2035 -0 0
lwrist 19.4795 0 0
lhand 13.208 10.8959 -0.0144257
lfingers 7.12502 -0 0
lthumb 38.1537 36.5771 -0.0383398
rclavicle -4.48259e-014 7.95139e-015 0
rhumerus -14.8798 52.6365 -55.7781
rradius 78.1607 -0 0
rwrist -3.85755 0 0
rhand 12.0906 -5.204 0.222514
rfingers 7.12502 -0 0
rthumb 37.0847 -31.023 0.282088
